<svg xmlns="http://www.w3.org/2000/svg" xmlns:xlink="http://www.w3.org/1999/xlink" id="Layer_1" x="0" y="0" enable-background="new 0 0 512 512" version="1.1" viewBox="0 0 512 512" xml:space="preserve"><g id="Strategy"><g id="graph_paper"><radialGradient id="SVGID_1_" cx="256" cy="258" r="256" gradientTransform="matrix(1 0 0 -1 0 514)" gradientUnits="userSpaceOnUse"><stop offset=".504" stop-color="#FCBE41"/><stop offset=".995" stop-color="#FCB23F"/></radialGradient><circle cx="256" cy="256" r="256" fill="url(#SVGID_1_)"/><path fill="#ECF0F1" d="M344,130V73.963c-2.668-1.199-5.594-1.963-8-1.963H140c-4.4,0-8,3.6-8,8v338c0,4.4,3.6,8,8,8h254 c4.4,0,8-3.6,8-8V138c0-2.406-0.764-5.332-1.963-8H344z"/><path fill="#BDC3C7" d="M400.037,130c-0.993-2.211-2.284-4.246-3.694-5.656L373,101l-23.351-23.351 c-1.41-1.407-3.441-2.695-5.649-3.687V130H400.037z"/><rect width="38" height="86" x="176" y="163" fill="#E94B35"/><rect width="38" height="68" x="224" y="181" fill="#F4CC20"/><rect width="38" height="51" x="272" y="198" fill="#2B3E51"/><rect width="38" height="114" x="320" y="135" fill="#00BD9C"/><rect width="182" height="12" x="176" y="262" fill="#BDC3C7"/><g><path fill="#F4CC20" d="M261.374,310.727C252.318,302.809,240.474,298,227.5,298c-0.167,0-0.333,0.011-0.5,0.013v53.883 L261.374,310.727z"/><path fill="#00BD9C" d="M227,298.013c-28.211,0.27-51,23.213-51,51.487c0,16.296,7.578,30.814,19.392,40.252L227,351.896 V298.013z"/><path fill="#E94B35" d="M261.374,310.727L227,351.896v49.092c0.167,0.002,0.333,0.013,0.5,0.013 c28.443,0,51.5-23.058,51.5-51.5C279,334.031,272.171,320.166,261.374,310.727z"/><path fill="#2B3E51" d="M195.392,389.752c8.684,6.936,19.656,11.121,31.608,11.235v-49.092L195.392,389.752z"/></g><g><circle cx="308" cy="319.5" r="8" fill="#F4CC20"/><circle cx="308" cy="339.5" r="8" fill="#00BD9C"/><circle cx="308" cy="359.5" r="8" fill="#2B3E51"/><circle cx="308" cy="379.5" r="8" fill="#E94B35"/></g><g><path fill="#BDC3C7" d="M372,321h-45c-1.381,0-2.5-1.119-2.5-2.5s1.119-2.5,2.5-2.5h45c1.381,0,2.5,1.119,2.5,2.5 S373.381,321,372,321z"/></g><g><path fill="#BDC3C7" d="M364,341h-37c-1.381,0-2.5-1.119-2.5-2.5s1.119-2.5,2.5-2.5h37c1.381,0,2.5,1.119,2.5,2.5 S365.381,341,364,341z"/></g><g><path fill="#BDC3C7" d="M364,361h-37c-1.381,0-2.5-1.119-2.5-2.5s1.119-2.5,2.5-2.5h37c1.381,0,2.5,1.119,2.5,2.5 S365.381,361,364,361z"/></g><g><path fill="#BDC3C7" d="M369,381h-44c-1.381,0-2.5-1.119-2.5-2.5s1.119-2.5,2.5-2.5h44c1.381,0,2.5,1.119,2.5,2.5 S370.381,381,369,381z"/></g><rect width="69" height="17" x="148" y="85" fill="#BDC3C7"/><g><path fill="#BDC3C7" d="M308,87h-81c-1.381,0-2.5-1.119-2.5-2.5s1.119-2.5,2.5-2.5h81c1.381,0,2.5,1.119,2.5,2.5 S309.381,87,308,87z"/></g><g><path fill="#BDC3C7" d="M291,96h-64c-1.381,0-2.5-1.119-2.5-2.5s1.119-2.5,2.5-2.5h64c1.381,0,2.5,1.119,2.5,2.5 S292.381,96,291,96z"/></g><g><path fill="#BDC3C7" d="M316,104h-89c-1.381,0-2.5-1.119-2.5-2.5s1.119-2.5,2.5-2.5h89c1.381,0,2.5,1.119,2.5,2.5 S317.381,104,316,104z"/></g><rect width="172" height="12" x="148" y="116" fill="#2B3E51"/></g></g></svg>